<svg width="6" height="11" viewBox="0 0 6 11" fill="none" xmlns="http://www.w3.org/2000/svg">
<path d="M5.83709 4.70795L1.29221 0.163156C1.1871 0.0579558 1.04677 0 0.897152 0C0.74753 0 0.607207 0.0579558 0.50209 0.163156L0.167391 0.497772C-0.0503999 0.715812 -0.0503999 1.07019 0.167391 1.2879L3.98384 5.10434L0.163156 8.92502C0.0580388 9.03022 0 9.17046 0 9.32C0 9.4697 0.0580388 9.60995 0.163156 9.71523L0.497855 10.0498C0.603055 10.155 0.743295 10.2129 0.892917 10.2129C1.04254 10.2129 1.18286 10.155 1.28798 10.0498L5.83709 5.50081C5.94246 5.39528 6.00033 5.25438 6 5.10459C6.00033 4.95422 5.94246 4.8134 5.83709 4.70795Z" fill="white"/>
</svg>
