<svg width="801" height="808" viewBox="0 0 801 808" fill="none" xmlns="http://www.w3.org/2000/svg">
<g opacity="0.2" clip-path="url(#clip0_115_74)">
<path d="M724.625 81.2112L228.873 2.66403L1.00153 450.037L355.92 805.074L803.145 577.127L724.625 81.2112Z" stroke="white" stroke-width="0.5" stroke-miterlimit="10"/>
<path d="M407.063 186.757L184.098 348.804L269.264 611H544.861L630.025 348.804L407.063 186.757Z" stroke="white" stroke-width="0.5" stroke-miterlimit="10"/>
<path d="M407.063 186.757L284.987 120.132L184.098 348.804L76.1329 407.934L178.429 576.351L269.264 611L492.773 712.789L544.861 611L714.413 580.614L654.741 470.824L630.025 348.804L650.479 95.6167L407.063 186.757Z" stroke="white" stroke-width="0.5" stroke-miterlimit="10"/>
<path d="M654.74 470.824L544.861 611" stroke="white" stroke-width="0.5" stroke-miterlimit="10"/>
<path d="M714.413 580.614L650.19 655.289L492.773 712.789L355.92 805.074L178.429 576.351L1.00153 450.037L76.1329 407.934L111.298 296.011L169.904 288.55L284.987 120.132L228.873 2.66403L169.904 288.55L184.098 348.804L111.298 296.011" stroke="white" stroke-width="0.5" stroke-miterlimit="10"/>
<path d="M284.987 120.132L413.92 97.7475L650.478 95.6167L724.625 81.2112L630.025 348.804L769.823 367.427L654.741 470.824L743.182 485.747L714.413 580.614L803.145 577.127L743.182 485.747L769.823 367.427" stroke="white" stroke-width="0.5" stroke-miterlimit="10"/>
<path d="M413.92 97.7475L228.873 2.66403L111.298 296.011L1.00153 450.037" stroke="white" stroke-width="0.5" stroke-miterlimit="10"/>
<path d="M771.634 367.761C771.634 367.64 771.634 367.518 771.634 367.395C771.644 367.133 771.589 366.89 771.471 366.665C771.395 366.429 771.264 366.226 771.078 366.054C770.906 365.868 770.703 365.739 770.468 365.661C770.242 365.541 769.997 365.488 769.737 365.498C769.569 365.52 769.402 365.543 769.233 365.566C768.912 365.657 768.633 365.818 768.396 366.054C768.298 366.181 768.199 366.31 768.1 366.437C767.93 366.733 767.842 367.052 767.841 367.395C767.841 367.517 767.841 367.638 767.841 367.761C767.831 368.023 767.884 368.266 768.004 368.492C768.08 368.727 768.21 368.93 768.396 369.103C768.569 369.289 768.772 369.418 769.007 369.496C769.233 369.615 769.478 369.668 769.737 369.659C769.906 369.636 770.073 369.613 770.242 369.59C770.562 369.499 770.841 369.338 771.078 369.103C771.177 368.976 771.276 368.847 771.374 368.72C771.547 368.424 771.632 368.105 771.634 367.761Z" fill="white"/>
<path d="M742.059 484.907C741.9 484.907 741.74 484.907 741.581 484.907C741.319 484.897 741.076 484.952 740.851 485.07C740.615 485.146 740.413 485.277 740.24 485.462C740.054 485.635 739.925 485.838 739.847 486.073C739.728 486.299 739.675 486.544 739.684 486.804C739.707 486.973 739.73 487.14 739.752 487.309C739.842 487.629 740.005 487.908 740.24 488.145C740.367 488.244 740.496 488.343 740.623 488.441C740.919 488.612 741.238 488.7 741.581 488.701C741.74 488.701 741.9 488.701 742.059 488.701C742.321 488.711 742.563 488.658 742.789 488.538C743.024 488.462 743.227 488.331 743.4 488.145C743.586 487.973 743.715 487.77 743.793 487.535C743.912 487.309 743.965 487.064 743.956 486.804C743.933 486.635 743.91 486.468 743.887 486.299C743.796 485.979 743.635 485.7 743.4 485.462C743.273 485.364 743.144 485.265 743.017 485.166C742.721 484.994 742.402 484.908 742.059 484.907Z" fill="white"/>
<path d="M712.908 582.673C712.914 582.677 712.92 582.679 712.927 582.682C713.001 582.717 713.254 582.819 713.157 582.779C713.113 582.76 713.311 582.848 713.386 582.876C713.39 582.878 713.392 582.878 713.396 582.88C713.402 582.882 713.407 582.884 713.413 582.884H713.417C713.434 582.887 713.906 582.95 713.923 582.952C713.927 582.952 713.929 582.952 713.933 582.952C713.938 582.952 713.942 582.952 713.948 582.952C713.952 582.952 714.453 582.884 714.453 582.884H714.456L714.464 582.882C714.464 582.882 714.468 582.88 714.471 582.88C714.496 582.872 714.906 582.698 714.929 582.686C714.932 582.684 714.938 582.683 714.942 582.679L714.948 582.675C714.959 582.667 715.323 582.386 715.333 582.377L715.335 582.375C715.338 582.371 715.342 582.368 715.346 582.364L715.352 582.358C715.357 582.352 715.644 581.98 715.649 581.973L715.651 581.969C715.655 581.965 715.657 581.96 715.661 581.956C715.748 581.806 715.805 581.635 715.866 581.476C715.869 581.464 715.873 581.453 715.877 581.442C715.919 581.265 715.932 581.073 715.951 580.903C715.953 580.889 715.953 580.876 715.953 580.863C715.953 580.85 715.953 580.838 715.951 580.825C715.951 580.819 715.949 580.812 715.949 580.806C715.936 580.696 715.898 580.407 715.881 580.299V580.295C715.881 580.292 715.879 580.288 715.879 580.284C715.877 580.273 715.873 580.259 715.869 580.248C715.816 580.081 715.742 579.922 715.666 579.764C715.661 579.755 715.655 579.745 715.649 579.736C715.623 579.7 715.38 579.383 715.35 579.349L715.344 579.343C715.34 579.339 715.336 579.335 715.333 579.332L715.329 579.33C715.316 579.318 714.957 579.041 714.944 579.032L714.938 579.028C714.938 579.028 714.934 579.026 714.93 579.024L714.927 579.022C714.915 579.017 714.485 578.834 714.471 578.831C714.466 578.829 714.462 578.827 714.456 578.825H714.453C714.441 578.823 713.959 578.759 713.946 578.757C713.942 578.757 713.94 578.757 713.937 578.757C713.855 578.755 713.584 578.802 713.667 578.791C713.699 578.787 713.478 578.804 713.398 578.829C713.394 578.831 713.392 578.831 713.388 578.833L713.385 578.834C713.337 578.852 712.973 579.005 712.927 579.028C712.92 579.032 712.912 579.036 712.905 579.039C712.683 579.159 712.506 579.322 712.372 579.529C712.205 579.713 712.091 579.927 712.032 580.174C711.953 580.426 711.941 580.679 711.998 580.931C712.009 581.183 712.085 581.419 712.224 581.637C712.322 581.764 712.421 581.893 712.52 582.02C712.757 582.256 713.036 582.419 713.356 582.508C713.525 582.531 713.692 582.553 713.861 582.576C714.204 582.574 714.523 582.489 714.819 582.316C714.826 582.312 714.834 582.307 714.841 582.305C714.69 582.369 714.54 582.432 714.388 582.497C714.399 582.493 714.411 582.489 714.422 582.487C714.253 582.51 714.086 582.533 713.918 582.555C713.927 582.553 713.935 582.553 713.944 582.555C713.775 582.533 713.608 582.51 713.44 582.487C713.447 582.489 713.455 582.491 713.46 582.493C713.309 582.428 713.159 582.366 713.007 582.301C713.015 582.305 713.02 582.309 713.028 582.312C712.901 582.214 712.772 582.115 712.645 582.016C712.652 582.022 712.66 582.03 712.666 582.037C712.567 581.91 712.468 581.781 712.37 581.654C712.379 581.665 712.387 581.679 712.393 581.694C712.328 581.542 712.265 581.392 712.201 581.24C712.21 581.265 712.216 581.29 712.22 581.314C712.197 581.146 712.174 580.979 712.152 580.81C712.155 580.844 712.155 580.876 712.152 580.91C712.174 580.741 712.197 580.574 712.22 580.406C712.216 580.43 712.21 580.455 712.201 580.478C712.265 580.326 712.328 580.176 712.393 580.024C712.387 580.037 712.379 580.051 712.37 580.064C712.468 579.937 712.567 579.808 712.666 579.681C712.66 579.688 712.652 579.696 712.645 579.702C712.772 579.603 712.901 579.504 713.028 579.406C713.022 579.411 713.015 579.415 713.007 579.417C713.159 579.352 713.309 579.29 713.46 579.225C713.453 579.227 713.447 579.229 713.44 579.231C713.608 579.208 713.775 579.185 713.944 579.163C713.935 579.165 713.927 579.163 713.918 579.163C714.086 579.185 714.253 579.208 714.422 579.231C714.411 579.229 714.399 579.225 714.388 579.222C714.54 579.286 714.69 579.349 714.841 579.413C714.834 579.409 714.826 579.406 714.821 579.402C714.602 579.263 714.367 579.187 714.115 579.176C713.863 579.119 713.61 579.13 713.358 579.21C713.111 579.269 712.897 579.383 712.713 579.55C712.506 579.685 712.343 579.861 712.224 580.083C712.159 580.235 712.097 580.385 712.032 580.536C711.941 580.872 711.941 581.208 712.032 581.546C712.097 581.698 712.159 581.848 712.224 581.999C712.396 582.276 712.624 582.504 712.908 582.673Z" fill="white"/>
<path d="M803.768 577.269C803.768 577.11 803.768 576.95 803.768 576.791C803.778 576.529 803.725 576.286 803.605 576.06C803.529 575.825 803.398 575.622 803.213 575.449C803.04 575.263 802.837 575.134 802.602 575.057C802.376 574.937 802.131 574.884 801.872 574.893C801.703 574.916 801.536 574.939 801.367 574.962C801.046 575.051 800.768 575.214 800.53 575.449C800.432 575.576 800.333 575.706 800.235 575.833C800.064 576.129 799.977 576.447 799.975 576.791C799.975 576.95 799.975 577.11 799.975 577.269C799.965 577.531 800.02 577.774 800.138 578C800.214 578.235 800.345 578.438 800.53 578.61C800.703 578.796 800.906 578.925 801.141 579.003C801.367 579.123 801.612 579.176 801.872 579.166C802.04 579.144 802.207 579.121 802.376 579.098C802.697 579.007 802.975 578.846 803.213 578.61C803.311 578.483 803.41 578.354 803.508 578.227C803.681 577.931 803.766 577.611 803.768 577.269Z" fill="white"/>
<path d="M656.842 471.042C656.869 470.886 656.895 470.732 656.922 470.577C657.001 470.325 657.013 470.072 656.956 469.82C656.945 469.567 656.869 469.332 656.73 469.114C656.611 468.892 656.448 468.715 656.241 468.581C656.057 468.414 655.842 468.3 655.596 468.241C655.427 468.218 655.26 468.196 655.091 468.173C654.748 468.175 654.429 468.26 654.133 468.433C654.006 468.531 653.877 468.63 653.75 468.729C653.515 468.966 653.352 469.245 653.263 469.566C653.236 469.721 653.21 469.875 653.183 470.03C653.103 470.283 653.092 470.535 653.149 470.788C653.16 471.04 653.236 471.275 653.375 471.493C653.494 471.715 653.657 471.892 653.864 472.027C654.048 472.194 654.262 472.307 654.509 472.366C654.678 472.389 654.845 472.412 655.014 472.435C655.357 472.433 655.676 472.347 655.971 472.175C656.099 472.076 656.228 471.977 656.355 471.879C656.59 471.641 656.753 471.362 656.842 471.042Z" fill="white"/>
<path d="M629.615 350.373C632.056 350.373 632.06 346.578 629.615 346.578C627.174 346.578 627.17 350.373 629.615 350.373Z" fill="white"/>
<path d="M545.402 612.672C547.843 612.672 547.847 608.877 545.402 608.877C542.96 608.877 542.957 612.672 545.402 612.672Z" fill="white"/>
<path d="M651.626 649.522C650.059 649.593 648.731 650.794 648.731 652.418V652.896C648.731 654.41 650.063 655.86 651.626 655.792C653.195 655.721 654.52 654.52 654.52 652.896V652.418C654.519 650.902 653.189 649.452 651.626 649.522Z" fill="white"/>
<path d="M492.289 709.831C490.72 709.901 489.394 711.103 489.394 712.727V713.205C489.394 714.719 490.726 716.171 492.289 716.1C493.858 716.03 495.183 714.827 495.183 713.205V712.727C495.183 711.213 493.852 709.761 492.289 709.831Z" fill="white"/>
<path d="M650.668 92.8539C646.944 92.8539 646.937 98.643 650.668 98.643C654.393 98.6449 654.399 92.8539 650.668 92.8539Z" fill="white"/>
<path d="M724.967 78.3858C723.811 77.3251 722.017 77.2416 720.873 78.3858L720.395 78.8639C719.324 79.936 719.244 81.8999 720.395 82.9567C721.55 84.0174 723.345 84.1009 724.489 82.9567L724.967 82.4786C726.038 81.4065 726.118 79.4427 724.967 78.3858Z" fill="white"/>
<path d="M406.162 183.797C404.593 183.867 403.267 185.068 403.267 186.693V187.171C403.267 188.685 404.599 190.135 406.162 190.066C407.73 189.996 409.056 188.795 409.056 187.171V186.693C409.054 185.179 407.725 183.727 406.162 183.797Z" fill="white"/>
<path d="M415.384 96.0948L414.906 95.6167C413.834 94.5446 411.871 94.4649 410.813 95.6167C409.752 96.7722 409.669 98.5653 410.813 99.7114C410.972 99.8708 411.131 100.03 411.291 100.19C412.362 101.262 414.326 101.341 415.384 100.19C416.444 99.034 416.528 97.2409 415.384 96.0948Z" fill="white"/>
<path d="M285.582 116.787H285.104C283.591 116.787 282.14 118.117 282.21 119.682C282.28 121.249 283.481 122.578 285.104 122.578H285.582C287.096 122.578 288.547 121.246 288.477 119.682C288.407 118.113 287.204 116.787 285.582 116.787Z" fill="white"/>
<path d="M232.098 2.38702L231.62 1.4307C230.94 0.0740172 228.915 -0.417424 227.661 0.39279C226.272 1.28839 225.897 2.90123 226.623 4.35278L227.101 5.311C227.78 6.66768 229.806 7.15912 231.06 6.34891C232.447 5.45331 232.824 3.84047 232.098 2.38702Z" fill="white"/>
<path d="M169.789 284.313C166.065 284.313 166.06 290.102 169.789 290.102C173.512 290.102 173.518 284.313 169.789 284.313Z" fill="white"/>
<path d="M113.459 293.778C112.303 292.717 110.509 292.633 109.365 293.778L108.887 294.256C107.816 295.328 107.736 297.292 108.887 298.35C110.042 299.411 111.835 299.495 112.981 298.35C113.14 298.191 113.299 298.032 113.459 297.872C114.53 296.798 114.61 294.834 113.459 293.778Z" fill="white"/>
<path d="M183.664 345.58H183.186C181.672 345.58 180.223 346.912 180.291 348.476C180.362 350.045 181.562 351.371 183.186 351.371H183.664C185.178 351.371 186.627 350.039 186.559 348.476C186.488 346.906 185.286 345.58 183.664 345.58Z" fill="white"/>
<path d="M76.0039 404.454C74.4353 404.525 73.1094 405.726 73.1094 407.35V408.308C73.1094 409.822 74.4409 411.272 76.0039 411.204C77.5726 411.133 78.8985 409.93 78.8985 408.308V407.35C78.8985 405.834 77.5669 404.384 76.0039 404.454Z" fill="white"/>
<path d="M2.79592 446.096C-0.927548 446.096 -0.935136 451.885 2.79592 451.885C6.51939 451.887 6.52508 446.096 2.79592 446.096Z" fill="white"/>
<path d="M179.358 573.895C175.633 573.895 175.627 579.685 179.358 579.685C183.082 579.685 183.087 573.895 179.358 573.895Z" fill="white"/>
<path d="M270.882 609.207C270.723 609.048 270.563 608.888 270.404 608.729C269.332 607.657 267.369 607.577 266.311 608.729C265.25 609.885 265.167 611.68 266.311 612.824C266.47 612.983 266.629 613.142 266.789 613.302C267.86 614.374 269.823 614.454 270.882 613.302C271.942 612.144 272.026 610.351 270.882 609.207Z" fill="white"/>
<path d="M355.442 802.211H354.964C353.451 802.211 352.002 803.543 352.07 805.106C352.14 806.676 353.343 808.002 354.964 808.002H355.442C356.956 808.002 358.405 806.67 358.337 805.106C358.265 803.537 357.064 802.211 355.442 802.211Z" fill="white"/>
</g>
<defs>
<clipPath id="clip0_115_74">
<rect width="804" height="808" fill="white"/>
</clipPath>
</defs>
</svg>
