<svg width="329" height="702" viewBox="0 0 329 702" fill="none" xmlns="http://www.w3.org/2000/svg">
<path d="M61.5408 140.941L60 138.372L123.71 104.909V38H126.861V106.633L61.5408 140.941Z" fill="#30ABE5"/>
<path d="M4 79L108 79" stroke="#30ABE5" stroke-width="0.75" stroke-miterlimit="10"/>
<rect y="25" width="4" height="109" fill="#30ABE5"/>
<path d="M198 0L259.488 35.5V106.5L198 142L136.512 106.5V35.5L198 0Z" fill="#30ABE5"/>
<path d="M197.5 5L255.091 38.25V104.75L197.5 138L139.909 104.75V38.25L197.5 5Z" fill="#49BAEF"/>
<path d="M61.5408 364.941L60 362.372L123.71 328.909V262H126.861V330.633L61.5408 364.941Z" fill="#30ABE5"/>
<path d="M4 303L108 303" stroke="#30ABE5" stroke-width="0.75" stroke-miterlimit="10"/>
<rect y="249" width="4" height="109" fill="#30ABE5"/>
<path d="M198 224L259.488 259.5V330.5L198 366L136.512 330.5V259.5L198 224Z" fill="#30ABE5"/>
<path d="M267.459 252.941L269 250.372L205.29 216.909V150H202.139V218.633L267.459 252.941Z" fill="#1990F1"/>
<path d="M325 191L221 191" stroke="#1990F1" stroke-width="0.75" stroke-miterlimit="10"/>
<rect width="4" height="109" transform="matrix(-1 0 0 1 329 137)" fill="#1990F1"/>
<path d="M131 112L69.5122 147.5V218.5L131 254L192.488 218.5V147.5L131 112Z" fill="#1990F1"/>
<path d="M61.5408 588.941L60 586.372L123.71 552.909V486H126.861V554.633L61.5408 588.941Z" fill="#30ABE5"/>
<path d="M4 527L108 527" stroke="#30ABE5" stroke-width="0.75" stroke-miterlimit="10"/>
<rect y="473" width="4" height="109" fill="#30ABE5"/>
<path d="M198 448L259.488 483.5V554.5L198 590L136.512 554.5V483.5L198 448Z" fill="#30ABE5"/>
<path d="M267.459 476.941L269 474.372L205.29 440.909V374H202.139V442.633L267.459 476.941Z" fill="#1990F1"/>
<path d="M325 415L221 415" stroke="#1990F1" stroke-width="0.75" stroke-miterlimit="10"/>
<rect width="4" height="109" transform="matrix(-1 0 0 1 329 361)" fill="#1990F1"/>
<path d="M131 336L69.5122 371.5V442.5L131 478L192.488 442.5V371.5L131 336Z" fill="#1990F1"/>
<path d="M267.459 700.941L269 698.372L205.29 664.909V598H202.139V666.633L267.459 700.941Z" fill="#1990F1"/>
<path d="M325 639L221 639" stroke="#1990F1" stroke-width="0.75" stroke-miterlimit="10"/>
<rect width="4" height="109" transform="matrix(-1 0 0 1 329 585)" fill="#1990F1"/>
<path d="M131 560L69.5122 595.5V666.5L131 702L192.488 666.5V595.5L131 560Z" fill="#1990F1"/>
<path d="M197.5 228L255.091 261.25V327.75L197.5 361L139.909 327.75V261.25L197.5 228Z" fill="#49BAEF"/>
<path d="M197.5 452L255.091 485.25V551.75L197.5 585L139.909 551.75V485.25L197.5 452Z" fill="#49BAEF"/>
<path d="M131.5 340L189.091 373.25V439.75L131.5 473L73.9093 439.75V373.25L131.5 340Z" fill="#4BA7F3"/>
<path d="M131.5 564L189.091 597.25V663.75L131.5 697L73.9093 663.75V597.25L131.5 564Z" fill="#4BA7F3"/>
<path d="M131.5 117L189.091 150.25V216.75L131.5 250L73.9093 216.75V150.25L131.5 117Z" fill="#4BA7F3"/>
</svg>
