<svg width="25" height="25" viewBox="0 0 25 25" fill="none" xmlns="http://www.w3.org/2000/svg">
<g clip-path="url(#clip0_44_111)">
<path d="M10.9766 17.6473C10.9473 17.6034 6.96284 13.6336 6.93364 13.6043C6.4502 13.0038 5.45415 12.8427 4.78027 13.5164C4.23364 14.0136 4.19155 15.0572 4.66313 15.45L7.15332 18.6874C7.44629 18.9804 7.44629 19.4345 7.15332 19.7274C6.90435 20.0057 6.377 20.0057 6.12798 19.7274L3.62305 16.4902C3.21284 16.08 2.97852 15.5233 2.97852 14.9374C2.97852 12.5243 2.97852 7.50961 2.97852 7.32025C2.97852 6.48744 2.28076 5.85541 1.51367 5.85541C0.708008 5.85541 0 6.51459 0 7.32025C0 7.52255 0 15.5098 0 15.8603C0 16.6513 0.3125 17.4277 0.78125 18.0576C0.887305 18.1993 4.23291 22.669 4.44336 22.9501V24.288C4.48735 24.6688 4.79492 24.9472 5.17578 24.9472H11.7676C11.7676 23.3907 11.7676 21.3204 11.7676 19.6395C11.7676 18.8338 11.416 18.0868 10.9766 17.6473Z" fill="#1994F2"/>
<path d="M24.2744 18.0481C24.2721 18.0512 24.2699 18.0545 24.2676 18.0576C24.2789 18.0425 24.2807 18.0399 24.2744 18.0481Z" fill="#1994F2"/>
<path d="M25 7.32022C25 6.51461 24.3408 5.85538 23.5352 5.85538C22.7656 5.85538 22.0703 6.48961 22.0703 7.32022C22.0703 7.52383 22.0703 14.6444 22.0703 14.9374C22.0703 15.5233 21.836 16.0799 21.4258 16.4901L18.872 19.7274C18.623 20.0057 18.0957 20.0057 17.8467 19.7274C17.5537 19.4345 17.5537 18.9804 17.8467 18.6874L20.3369 15.4501C20.7954 15.0682 20.7809 14.0268 20.2197 13.5165C19.5458 12.8427 18.5498 13.0038 18.0664 13.6044C18.0371 13.6337 14.0527 17.6034 14.0234 17.6473C13.5839 18.0868 13.2324 18.8338 13.2324 19.6395C13.2324 20.0896 13.2324 24.7669 13.2324 24.9472H19.8242C20.1734 24.9472 20.5093 24.6983 20.5566 24.288C20.5566 24.1559 20.5566 23.0691 20.5566 22.9501C20.6642 22.8064 24.1467 18.2129 24.2744 18.0481C24.7388 17.4199 25 16.6474 25 15.8603C25 15.6396 25 7.32022 25 7.32022Z" fill="#1994F2"/>
<path d="M17.1856 1.90236C16.7314 1.44821 16.2248 1.06798 15.6803 0.766907C15.7878 0.981458 15.8919 1.21417 15.9915 1.467C16.4795 2.70563 16.7975 4.30177 16.8756 5.85543H19.0997C18.9348 4.36949 18.2699 2.98668 17.1856 1.90236Z" fill="#1994F2"/>
<path d="M14.6286 2.00395C14.3394 1.26982 13.8848 0.430658 13.2324 0.0528259V5.85541H15.4084C15.3331 4.48066 15.054 3.08364 14.6286 2.00395Z" fill="#1994F2"/>
<path d="M10.374 1.99738C9.94712 3.07745 9.66699 4.47697 9.59155 5.85538H11.7676V0.0530396C11.117 0.430139 10.663 1.26603 10.374 1.99738Z" fill="#1994F2"/>
<path d="M7.81455 1.90228C6.73018 2.98666 6.06533 4.36942 5.90039 5.85536H8.12451C8.20264 4.29745 8.52183 2.69833 9.01167 1.45892C9.11035 1.20917 9.21343 0.979138 9.31987 0.766785C8.77534 1.06786 8.2687 1.44813 7.81455 1.90228Z" fill="#1994F2"/>
<path d="M13.2324 7.32022V13.077C13.8826 12.706 14.3356 11.8837 14.6238 11.1644C15.0525 10.0943 15.3336 8.69942 15.4087 7.32022H13.2324Z" fill="#1994F2"/>
<path d="M16.8759 7.32022C16.7932 8.98028 16.4287 10.8988 15.6857 12.3695C17.5381 11.3598 18.8557 9.49864 19.0994 7.32022H16.8759Z" fill="#1994F2"/>
<path d="M9.59131 7.32022C9.66616 8.68985 9.94478 10.0782 10.3694 11.1472C10.6581 11.8738 11.1127 12.7045 11.7676 13.0775V7.32022H9.59131Z" fill="#1994F2"/>
<path d="M8.12422 7.32022H5.90063C6.14438 9.49869 7.46191 11.3598 9.31436 12.3695C8.57139 10.8988 8.20684 8.98033 8.12422 7.32022Z" fill="#1994F2"/>
</g>
<defs>
<clipPath id="clip0_44_111">
<rect width="25" height="25" fill="white"/>
</clipPath>
</defs>
</svg>
