<svg width="28" height="28" viewBox="0 0 28 28" fill="none" xmlns="http://www.w3.org/2000/svg">
<path d="M23.0817 12.7958H4.91732C3.9826 12.7958 3.22485 13.5535 3.22485 14.4882V26.0888C3.22485 27.0235 3.9826 27.7812 4.91732 27.7812H23.0817C24.0164 27.7812 24.7741 27.0235 24.7741 26.0888V14.4882C24.7741 13.5535 24.0164 12.7958 23.0817 12.7958Z" fill="#1994F2"/>
<path opacity="0.08" d="M24.7752 14.4878V26.0881C24.7752 26.5372 24.5968 26.9678 24.2793 27.2854C23.9618 27.6029 23.5311 27.7813 23.0821 27.7813H4.91706C4.5515 27.781 4.1958 27.6627 3.90293 27.444C3.61006 27.2252 3.39569 26.9177 3.29175 26.5672C3.427 26.6007 3.56584 26.6176 3.70519 26.6175H21.8702C22.3192 26.6175 22.7499 26.4391 23.0674 26.1216C23.3849 25.8041 23.5633 25.3734 23.5633 24.9244V13.3241C23.5633 13.1627 23.5405 13.0022 23.4955 12.8472C23.8609 12.9394 24.1851 13.1507 24.4169 13.4479C24.6487 13.745 24.7748 14.111 24.7752 14.4878Z" fill="black"/>
<path d="M21.8997 8.11891V12.7969H19.6805V8.11891C19.6805 6.6123 19.082 5.1674 18.0167 4.10203C16.9514 3.03666 15.5066 2.43808 14 2.43797C12.4933 2.43797 11.0483 3.03649 9.98285 4.10186C8.91743 5.16724 8.31886 6.61221 8.3188 8.11891V12.7969H6.09937V8.11891C6.09937 7.08141 6.30372 6.05407 6.70077 5.09555C7.09782 4.13703 7.67978 3.2661 8.41342 2.5325C9.14707 1.79889 10.018 1.21698 10.9766 0.819988C11.9351 0.422994 12.9625 0.218693 14 0.21875C16.0951 0.218866 18.1045 1.05125 19.5859 2.53281C21.0674 4.01436 21.8997 6.02373 21.8997 8.11891Z" fill="#515D85"/>
<path d="M16.0941 19.3898C16.0941 19.1119 16.0388 18.8368 15.9314 18.5804C15.8241 18.3241 15.6668 18.0917 15.4687 17.8968C15.2706 17.7019 15.0357 17.5484 14.7777 17.4451C14.5197 17.3419 14.2437 17.291 13.9659 17.2955C13.4039 17.3118 12.8715 17.5505 12.4854 17.9591C12.0993 18.3678 11.8911 18.9129 11.9066 19.4749C11.919 19.7808 11.9986 20.0803 12.1396 20.352C12.2806 20.6238 12.4796 20.8613 12.7225 21.0477L12.3552 22.6297C12.3371 22.7077 12.3368 22.7888 12.3545 22.8669C12.3721 22.9451 12.4071 23.0182 12.4569 23.0809C12.5067 23.1436 12.57 23.1943 12.6422 23.2291C12.7143 23.2639 12.7934 23.282 12.8734 23.282H15.1255C15.2056 23.282 15.2846 23.2639 15.3567 23.2291C15.4289 23.1943 15.4922 23.1436 15.542 23.0809C15.5918 23.0182 15.6269 22.9451 15.6445 22.8669C15.6621 22.7888 15.6618 22.7077 15.6437 22.6297L15.2764 21.0475C15.5308 20.8524 15.7368 20.6014 15.8786 20.314C16.0204 20.0265 16.0941 19.7103 16.0941 19.3898Z" fill="#515D85"/>
</svg>
