<svg width="11" height="15" viewBox="0 0 11 15" fill="none" xmlns="http://www.w3.org/2000/svg">
<path d="M3.50609 3.92003C3.50609 2.82279 4.40105 1.9309 5.49522 1.9309C6.5894 1.9309 7.48435 2.82585 7.48435 3.92003V5.90916H9.41525V3.92003C9.41525 1.75007 7.64986 0 5.49522 0C3.34059 0 1.5752 1.75313 1.5752 3.92003V5.90916H3.50609V3.92003Z" fill="#938E8E"/>
<path d="M9.93033 6.55585H1.06046C0.475062 6.55585 0 7.03397 0 7.61631V13.9454C0 14.5308 0.478127 15.0058 1.06046 15.0058H9.93952C10.5249 15.0058 11 14.5277 11 13.9454V7.61631C11.003 7.03091 10.5249 6.55585 9.93033 6.55585ZM6.36583 12.6704H4.62496L4.97129 10.8222C4.674 10.6444 4.45945 10.3104 4.45945 9.93951C4.45945 9.36638 4.92532 8.90357 5.49539 8.90357C6.06547 8.90357 6.53134 9.36944 6.53134 9.93951C6.53134 10.3196 6.32905 10.6414 6.0195 10.8222L6.36583 12.6704Z" fill="#938E8E"/>
</svg>
