<svg width="26" height="26" viewBox="0 0 26 26" fill="none" xmlns="http://www.w3.org/2000/svg">
<path d="M22.5215 13C22.5215 7.74998 18.2505 3.47852 13.0001 3.47852C7.74978 3.47852 3.47852 7.74998 3.47852 13C3.47852 18.2505 7.74978 22.5215 13.0001 22.5215C18.2505 22.5215 22.5215 18.2505 22.5215 13ZM13.2905 19.1716L11.7944 17.6754L17.7793 11.6908L19.2753 13.187L13.2905 19.1716ZM8.42816 12.0648L9.92413 13.5609L8.80212 14.6832L7.3059 13.187L8.42816 12.0648ZM9.17617 11.3168L13.2905 7.20241L14.7869 8.69863L10.6722 12.813L9.17617 11.3168ZM15.5349 9.44658L17.0309 10.9428L11.0464 16.9274L9.55018 15.4312L15.5349 9.44658Z" fill="#1994F2"/>
<path d="M14.5997 23.5455V25.6953C20.3882 24.9733 24.9734 20.3882 25.6953 14.5997H23.5456C22.8521 19.2092 19.2092 22.8521 14.5997 23.5455Z" fill="#1994F2"/>
<path d="M11.4001 2.45446V0.304688C5.61199 1.02705 1.0269 5.61219 0.304688 11.4003H2.45446C3.14793 6.79098 6.79103 3.14793 11.4001 2.45446Z" fill="#1994F2"/>
<path d="M23.5456 11.4003H25.6953C24.9734 5.61199 20.3882 1.02705 14.5997 0.304688V2.45446C19.2092 3.14793 22.8521 6.79098 23.5456 11.4003Z" fill="#1994F2"/>
<path d="M2.45446 14.5997H0.304688C1.0269 20.3882 5.61199 24.9733 11.4001 25.6953V23.5455C6.79103 22.8521 3.14793 19.2092 2.45446 14.5997Z" fill="#1994F2"/>
</svg>
