<svg width="13" height="13" viewBox="0 0 13 13" fill="none" xmlns="http://www.w3.org/2000/svg">
<path d="M5.99274 10.1113L0.207681 4.32616C0.0737718 4.19236 0 4.01374 0 3.82329C0 3.63284 0.0737718 3.45422 0.207681 3.32042L0.633613 2.89438C0.911155 2.61715 1.36224 2.61715 1.63936 2.89438L6.4973 7.75232L11.3606 2.88899C11.4945 2.75518 11.6731 2.68131 11.8634 2.68131C12.054 2.68131 12.2325 2.75518 12.3665 2.88899L12.7923 3.31503C12.9262 3.44894 13 3.62745 13 3.8179C13 4.00835 12.9262 4.18697 12.7923 4.32077L7.00198 10.1113C6.86764 10.2455 6.68829 10.3191 6.49762 10.3187C6.30622 10.3191 6.12697 10.2455 5.99274 10.1113Z" fill="white"/>
</svg>
